<svg xmlns="http://www.w3.org/2000/svg" width="1618" height="123" viewBox="0 0 1618 123">
  <path fill="none" stroke="#09BA76" stroke-width="2" d="M0.20887,29.91 C10.4954,29.816 -4.3188,117.371 5.9676893,117.276 C16.2542,117.182 15.65364,120.731 25.9402,120.637 C36.2267,120.542 44.2344,73.215 54.5209,73.12 C64.8075,73.025 60.4032,99.055 70.6898,98.96 C80.9763,98.866 81.3767,96.499 91.6632,96.405 C101.9498,96.31 108.156,59.631 118.442,59.537 C128.729,59.442 125.326,79.556 135.612,79.461 C145.899,79.367 140.293,112.496 150.58,112.401 C160.866,112.307 167.072,75.628 177.359,75.533 C187.645,75.438 184.042,96.736 194.328,96.641 C204.615,96.546 202.012,111.928 212.299,111.833 C222.585,111.738 237.2,25.366 247.486,25.271 C257.773,25.177 245.561,97.351 255.847,97.256 C266.134,97.161 273.141,55.75 283.427,55.655 C293.714,55.561 294.715,49.645 305.001,49.55 C315.288,49.455 312.685,64.837 322.972,64.742 C333.258,64.647 336.662,44.533 346.948,44.438 C357.235,44.344 363.04,10.031 373.327,9.937 C383.613,9.842 367.398,105.68 377.684,105.585 C387.971,105.491 404.186,9.653 414.473,9.558 C424.759,9.463 424.559,10.647 434.846,10.552 C445.132,10.457 437.925,53.052 448.212,52.957 C458.498,52.862 458.699,51.679 468.985,51.585 C479.272,51.49 474.867,77.52 485.154,77.425 C495.441,77.33 497.042,67.865 507.329,67.77 C517.615,67.676 526.624,14.432 536.91,14.338 C547.197,14.243 539.189,61.57 549.476,61.476 C559.762,61.381 559.162,64.931 569.448,64.836 C579.735,64.741 585.74,29.246 596.027,29.151 C606.314,29.056 610.718,3.026 621.004,2.932 C631.291,2.837 624.084,45.431 634.37,45.337 C644.657,45.242 644.857,44.059 655.144,43.964 C665.43,43.87 663.428,55.701 673.715,55.607 C684.001,55.512 689.006,25.932 699.293,25.838 C709.579,25.743 710.981,17.461 721.267,17.366 C731.554,17.271 728.751,33.836 739.038,33.741 C749.324,33.647 736.512,109.37 746.798,109.276 C757.085,109.181 763.691,70.136 773.978,70.041 C784.264,69.946 796.076,0.139 806.362,0.0438496645 C816.649,-0.051 809.041,44.91 819.328,44.816 C829.614,44.721 827.813,55.37 838.099,55.275 C848.386,55.18 851.389,37.432 861.675,37.338 C871.962,37.243 867.758,62.09 878.044,61.995 C888.331,61.9 878.922,117.51 889.208,117.415 C899.495,117.321 910.705,51.062 920.992,50.968 C931.279,50.873 922.47,102.933 932.757,102.838 C943.043,102.744 945.846,86.179 956.132,86.084 C966.419,85.99 977.429,20.915 987.716,20.82 C998.003,20.725 996.201,31.374 1006.49,31.279 C1016.77,31.185 1002.76,114.007 1013.05,113.913 C1023.33,113.818 1031.54,65.308 1041.83,65.213 C1052.11,65.118 1061.52,9.509 1071.81,9.414 C1082.1,9.319 1071.09,74.394 1081.37,74.3 C1091.66,74.205 1085.85,108.517 1096.14,108.423 C1106.43,108.328 1122.44,13.673 1132.73,13.578 C1143.01,13.484 1133.01,72.643 1143.29,72.548 C1153.58,72.454 1148.17,104.4 1158.46,104.305 C1168.75,104.21 1173.15,78.18 1183.44,78.085 C1193.72,77.991 1194.52,73.258 1204.81,73.163 C1215.1,73.069 1221.5,35.207 1231.79,35.112 C1242.08,35.017 1246.48,8.987 1256.77,8.893 C1267.05,8.798 1263.05,32.462 1273.34,32.367 C1283.62,32.272 1280.62,50.02 1290.91,49.925 C1301.19,49.831 1308.2,8.419 1318.49,8.324 C1328.77,8.23 1328.37,10.596 1338.66,10.501 C1348.95,10.407 1340.54,60.101 1350.82,60.006 C1361.11,59.911 1363.91,43.347 1374.2,43.252 C1384.49,43.157 1380.88,64.454 1391.17,64.36 C1401.46,64.265 1411.27,6.289 1421.55,6.194 C1431.84,6.1 1432.24,3.733 1442.53,3.639 C1452.81,3.544 1435.2,107.664 1445.48,107.569 C1455.77,107.475 1458.97,88.544 1469.26,88.449 C1479.54,88.354 1477.94,97.82 1488.23,97.725 C1498.52,97.631 1508.53,38.471 1518.81,38.377 C1529.1,38.282 1527.7,46.564 1537.98,46.47 C1548.27,46.375 1542.66,79.504 1552.95,79.409 C1563.24,79.315 1564.84,69.849 1575.13,69.754 C1585.41,69.66 1595.82,8.134 1606.11,8.04 C1616.4,7.945 1607.59,60.005 1617.87,59.91" transform="translate(0 1)"/>
</svg>
